<?xml version="1.0" encoding="UTF-8" standalone="no"?>
<!-- Generator: Adobe Illustrator 15.1.0, SVG Export Plug-In  -->

<svg
   xmlns:dc="http://purl.org/dc/elements/1.1/"
   xmlns:cc="http://creativecommons.org/ns#"
   xmlns:rdf="http://www.w3.org/1999/02/22-rdf-syntax-ns#"
   xmlns:svg="http://www.w3.org/2000/svg"
   xmlns="http://www.w3.org/2000/svg"
   xmlns:sodipodi="http://sodipodi.sourceforge.net/DTD/sodipodi-0.dtd"
   xmlns:inkscape="http://www.inkscape.org/namespaces/inkscape"
   version="1.1"
   x="0px"
   y="0px"
   width="16"
   height="16"
   viewBox="-0.4 -0.3 16 16"
   style="overflow:visible"
   xml:space="preserve"
   preserveAspectRatio="xMinYMid meet"
   id="svg3025"
   inkscape:version="0.48.4 r9939"
   sodipodi:docname="deletem.svg"><metadata
   id="metadata3033"><rdf:RDF><cc:Work
       rdf:about=""><dc:format>image/svg+xml</dc:format><dc:type
         rdf:resource="http://purl.org/dc/dcmitype/StillImage" /><dc:title></dc:title></cc:Work></rdf:RDF></metadata><sodipodi:namedview
   pagecolor="#ffffff"
   bordercolor="#666666"
   borderopacity="1"
   objecttolerance="10"
   gridtolerance="10"
   guidetolerance="10"
   inkscape:pageopacity="0"
   inkscape:pageshadow="2"
   inkscape:window-width="1366"
   inkscape:window-height="705"
   id="namedview3031"
   showgrid="false"
   inkscape:zoom="19.666667"
   inkscape:cx="6"
   inkscape:cy="6"
   inkscape:window-x="-8"
   inkscape:window-y="-8"
   inkscape:window-maximized="1"
   inkscape:current-layer="svg3025" />
<defs
   id="defs3027">
</defs>
<path
   style="fill:#999999"
   d="m 10.644248,7.6292035 4.530973,-4.5309734 c 0.566372,-0.5663717 0.566372,-1.4159292 0,-1.9823009 l -0.99115,-0.9911504 c -0.566372,-0.5663717 -1.415929,-0.5663717 -1.982301,0 L 7.5292035,4.6557522 2.9982301,0.1247788 c -0.5663717,-0.5663717 -1.4159292,-0.5663717 -1.9823009,0 L 0.02477876,1.1159292 c -0.56637168,0.5663717 -0.56637168,1.4159292 0,1.9823009 L 4.5557522,7.6292035 0.02477876,12.30177 c -0.56637168,0.566372 -0.56637168,1.415929 0,1.982301 l 0.99115044,0.99115 c 0.5663717,0.566372 1.4159292,0.566372 1.9823009,0 l 4.5309734,-4.530973 4.6725665,4.530973 c 0.566372,0.566372 1.415929,0.566372 1.982301,0 l 0.99115,-0.99115 c 0.566372,-0.566372 0.566372,-1.415929 0,-1.982301 L 10.644248,7.6292035 z"
   id="path3029"
   inkscape:connector-curvature="0" />
</svg>